<svg xmlns="http://www.w3.org/2000/svg" viewBox="0 0 512 512"><defs>
  <linearGradient id="bg" x1="0" y1="0" x2="0" y2="1">
    <stop offset="0" stop-color="#9c4242"/>
    <stop offset="1" stop-color="#6c2a2a"/>
  </linearGradient>
  <linearGradient id="orange" x1="0" y1="0" x2="0" y2="1">
    <stop offset="0" stop-color="#f0902f"/>
    <stop offset="1" stop-color="#e07b1a"/>
  </linearGradient>
  <filter id="sh" x="-20%" y="-20%" width="140%" height="140%">
    <feDropShadow dx="0" dy="6" stdDeviation="10" flood-color="#000000" flood-opacity="0.28"/>
  </filter>
</defs><rect width="512" height="512" rx="112" fill="url(#bg)"/><g>
  <!-- Calendar (behind) -->
  <g filter="url(#sh)">
    <rect x="118" y="124" width="182" height="160" rx="16" fill="#eef1f5"/>
    <path d="M118 140 a16 16 0 0 1 16 -16 h150 a16 16 0 0 1 16 16 v26 h-182 z" fill="#7a2f2f"/>
    <rect x="150" y="112" width="16" height="26" rx="7" fill="#f2e7d4"/>
    <rect x="252" y="112" width="16" height="26" rx="7" fill="#f2e7d4"/>
    <g fill="#cdd4dd">
      <rect x="138" y="184" width="22" height="20" rx="4"/>
      <rect x="170" y="184" width="22" height="20" rx="4"/>
      <rect x="202" y="184" width="22" height="20" rx="4"/>
      <rect x="234" y="184" width="22" height="20" rx="4"/>
      <rect x="138" y="214" width="22" height="20" rx="4"/>
      <rect x="170" y="214" width="22" height="20" rx="4" fill="#e07b1a"/>
      <rect x="202" y="214" width="22" height="20" rx="4"/>
      <rect x="234" y="214" width="22" height="20" rx="4"/>
      <rect x="138" y="244" width="22" height="20" rx="4"/>
      <rect x="170" y="244" width="22" height="20" rx="4"/>
      <rect x="202" y="244" width="22" height="20" rx="4"/>
      <rect x="234" y="244" width="22" height="20" rx="4"/>
    </g>
  </g>
  <!-- Document (front) -->
  <g filter="url(#sh)">
    <path d="M214 192 h140 l34 34 v172 a14 14 0 0 1 -14 14 h-160 a14 14 0 0 1 -14 -14 v-192 a14 14 0 0 1 14 -14 z" fill="#ffffff"/>
    <path d="M354 192 l34 34 h-34 z" fill="#d9c4c4"/>
    <rect x="232" y="226" width="120" height="24" rx="7" fill="url(#orange)"/>
    <g fill="#d7dde4">
      <rect x="232" y="268" width="138" height="13" rx="6"/>
      <rect x="232" y="292" width="110" height="13" rx="6"/>
      <rect x="232" y="316" width="138" height="13" rx="6"/>
      <rect x="232" y="340" width="86" height="13" rx="6"/>
    </g>
    <circle cx="356" cy="356" r="28" fill="url(#orange)"/>
    <path d="M344 356 l8 9 16 -18" fill="none" stroke="#ffffff" stroke-width="6" stroke-linecap="round" stroke-linejoin="round"/>
  </g>
</g></svg>
